<?xml version="1.0" standalone="no"?><!DOCTYPE svg PUBLIC "-//W3C//DTD SVG 1.1//EN" "http://www.w3.org/Graphics/SVG/1.1/DTD/svg11.dtd"><svg class="icon" width="200px" height="200.00px" viewBox="0 0 1024 1024" version="1.1" xmlns="http://www.w3.org/2000/svg"><path fill="#333333" d="M954.7 886.8l-141.4-802-224.4 39.6H77v814.3h521.8V577.5l63.6 360.8 292.3-51.5z m-233.9-31.9L696 714.4l150.5-26.5 24.8 140.5-150.5 26.5z m-81.6-462.3l150.5-26.5L834 617l-150.5 26.5-44.3-250.9z m115.7-224.3l22.4 126.9-150.5 26.5-22.4-126.9 150.5-26.5zM149 397.3h152.9V652H149V397.3z m224.9 0h152.9V652H373.9V397.3z m152.8-200.9v128.9H373.9V196.4h152.8z m-224.8 0v128.9H149V196.4h152.9zM149 866.7V724h152.9v142.7H149z m224.9 0V724h152.9v142.7H373.9z" /></svg>